<?xml version="1.0" encoding="UTF-8"?><svg id="a" xmlns="http://www.w3.org/2000/svg" viewBox="0 0 181 65"><defs><style>.b{fill:#031f3e;}.c{fill:#eb5a2b;}.d{fill:#fff;}</style></defs><g><g><path class="c" d="M42.64,44.36c.22-.42,.54-.74,.94-.97,.4-.23,.86-.34,1.37-.34,.64,0,1.18,.16,1.62,.47,.44,.31,.71,.75,.82,1.3h-.69c-.1-.36-.3-.64-.61-.85-.31-.21-.69-.31-1.14-.31-.59,0-1.07,.19-1.43,.57-.36,.38-.54,.91-.54,1.59s.17,1.18,.52,1.57c.35,.39,.83,.59,1.43,.59,.46,0,.84-.11,1.16-.32,.31-.21,.52-.49,.61-.84h.69c-.11,.53-.38,.96-.83,1.28-.45,.32-.98,.48-1.59,.48-.53,0-.99-.11-1.4-.34-.4-.23-.72-.55-.94-.97-.22-.42-.33-.9-.33-1.44s.11-1.03,.34-1.45Zm2.54,4.6c.24,0,.45,.07,.63,.22,.18,.14,.27,.35,.27,.61,0,.3-.11,.54-.32,.7-.21,.16-.47,.24-.77,.24-.32,0-.58-.08-.79-.24v-.52c.07,.08,.17,.14,.29,.19,.13,.05,.25,.07,.39,.07,.17,0,.31-.04,.43-.12s.18-.19,.18-.34c0-.12-.06-.22-.18-.29-.12-.07-.26-.11-.44-.11-.05,0-.13,0-.24,.02l-.21-.24,.53-1.09h.33v.35l-.33,.57s.13-.02,.24-.02Z"/><path class="c" d="M52.56,48.11c-.45,.3-.97,.45-1.56,.45-.52,0-.98-.12-1.37-.35-.4-.23-.7-.56-.92-.98-.22-.42-.33-.9-.33-1.45s.11-1.02,.33-1.44,.53-.74,.92-.97c.39-.23,.83-.34,1.33-.34s.91,.1,1.28,.31c.37,.21,.66,.5,.86,.87,.2,.37,.3,.79,.3,1.26,0,.2-.01,.38-.04,.54h-4.32c.02,.59,.21,1.07,.56,1.42,.35,.36,.81,.53,1.38,.53,.41,0,.78-.1,1.09-.29,.32-.2,.53-.46,.64-.78h.68c-.13,.5-.41,.91-.85,1.21Zm.16-2.62c0-.56-.17-1.01-.49-1.35s-.74-.51-1.27-.51c-.55,0-1,.17-1.35,.51-.35,.34-.53,.79-.55,1.35h3.67Z"/><path class="c" d="M54.81,40.19h.69v8.23h-.69v-8.23Z"/><path class="c" d="M57.31,42.36c-.1-.1-.14-.21-.14-.35,0-.15,.05-.28,.14-.37,.1-.1,.22-.14,.36-.14,.15,0,.28,.05,.37,.14,.1,.1,.14,.22,.14,.37,0,.14-.05,.25-.14,.35s-.22,.14-.37,.14-.26-.05-.36-.14Zm.73,.83v5.23h-.69v-5.23h.69Z"/><path class="c" d="M62.25,45.12l1.81,3.3h-.76l-1.53-2.8-1.19,1.24v1.57h-.69v-8.23h.69v5.8l2.71-2.8h.83l-1.87,1.93Z"/><path class="c" d="M72.01,48.11c-.45,.3-.97,.45-1.56,.45-.52,0-.98-.12-1.37-.35-.4-.23-.7-.56-.92-.98-.22-.42-.33-.9-.33-1.45s.11-1.02,.33-1.44,.53-.74,.92-.97c.39-.23,.83-.34,1.33-.34s.91,.1,1.28,.31c.37,.21,.66,.5,.86,.87,.2,.37,.3,.79,.3,1.26,0,.2-.01,.38-.04,.54h-4.32c.02,.59,.21,1.07,.56,1.42,.35,.36,.81,.53,1.38,.53,.41,0,.78-.1,1.09-.29,.32-.2,.53-.46,.64-.78h.68c-.13,.5-.41,.91-.85,1.21Zm.16-2.62c0-.56-.17-1.01-.49-1.35s-.74-.51-1.27-.51c-.55,0-1,.17-1.35,.51-.35,.34-.53,.79-.55,1.35h3.67Z"/><path class="c" d="M74.11,43.19l.67,1.68c.21,.54,.43,1.1,.65,1.67,.22,.57,.37,.96,.45,1.17,.08-.21,.23-.61,.45-1.18,.22-.57,.44-1.13,.65-1.66l.7-1.68h.71l-2.17,5.23h-.7l-2.13-5.23h.73Z"/></g><g><path class="b" d="M18.22,46.71c-.34,.59-.83,1.04-1.44,1.37-.62,.33-1.32,.49-2.12,.49s-1.48-.16-2.1-.48c-.61-.32-1.09-.78-1.44-1.36-.35-.59-.52-1.26-.52-2.03s.17-1.44,.51-2.03,.82-1.05,1.44-1.38c.62-.33,1.32-.49,2.11-.49s1.49,.16,2.1,.49c.62,.33,1.1,.78,1.44,1.37,.34,.59,.52,1.26,.52,2.03s-.17,1.44-.52,2.03Zm-2.05-3.58c-.38-.39-.87-.59-1.49-.59s-1.12,.2-1.51,.59c-.38,.4-.57,.92-.57,1.56s.19,1.16,.57,1.55c.38,.39,.88,.58,1.5,.58s1.11-.2,1.49-.59c.38-.39,.57-.91,.57-1.55s-.19-1.16-.57-1.56Z"/><path class="b" d="M20,41.93c.24-.37,.57-.65,1.01-.84,.44-.2,.94-.3,1.5-.3s1.05,.1,1.49,.29,.77,.47,1.01,.82c.24,.35,.36,.76,.37,1.23h-1.94c0-.23-.11-.42-.31-.55-.2-.14-.44-.2-.73-.2-.25,0-.45,.05-.6,.16-.15,.11-.22,.26-.22,.45,0,.16,.07,.29,.2,.38,.13,.09,.34,.17,.62,.23l1.15,.26c.71,.16,1.23,.44,1.56,.83s.49,.86,.49,1.4c0,.5-.12,.94-.37,1.32-.25,.37-.6,.66-1.06,.86-.46,.2-.99,.3-1.6,.3-.92,0-1.66-.22-2.22-.66-.56-.44-.87-1.03-.92-1.79h1.93c.02,.27,.14,.48,.36,.63,.21,.15,.5,.22,.86,.22,.32,0,.57-.06,.75-.18,.18-.12,.27-.29,.27-.51,0-.16-.05-.29-.16-.38-.11-.09-.27-.17-.49-.22l-1.22-.28c-1.38-.32-2.08-1.05-2.08-2.2,0-.49,.12-.92,.36-1.28Z"/><path class="b" d="M29.64,45.81l-1.02,1.31v1.34h-1.89v-7.5h1.89v3.21l2.5-3.21h2.35l-2.52,3.21,2.55,4.25h-2.26l-1.6-2.61Z"/><path class="b" d="M36.42,40.95h1.79l2.76,7.47h-2.01l-.51-1.46h-2.33l-.53,1.46h-1.97l2.79-7.47Zm1.5,4.44l-.19-.53-.29-.92-.13-.4c-.02,.1-.08,.28-.17,.54-.09,.26-.18,.52-.27,.77l-.2,.53h1.25Z"/></g><path class="c" d="M74.13,38.31h-3.45c0-.09-.02-.17-.02-.25,0-.54,0-1.08,0-1.62,0-.15-.04-.28-.14-.41-2.72-3.71-5.44-7.42-8.16-11.13l1.12-1.26c3.99,5.45,10.56,14.49,10.64,14.67Z"/><path class="c" d="M69.17,38.31h-3.45c0-.09-.02-.17-.02-.25,0-.54,0-1.08,0-1.62,0-.15-.04-.28-.14-.41-1.97-2.69-3.95-5.38-5.92-8.08l1.12-1.25c3.82,5.23,8.34,11.46,8.41,11.61Z"/><path class="c" d="M64.1,38.41h-2.57c0-.07-.01-.13-.01-.19,0-.4,0-.8,0-1.21,0-.12-.03-.21-.1-.31-1.44-1.97-2.88-3.93-4.32-5.9l.83-.93c2.83,3.87,6.13,8.42,6.17,8.53Z"/><path class="b" d="M64.78,17.04c-.09,.09-.13,.14-.18,.19-2.66,2.32-5.32,4.63-7.98,6.95-.63,.6-1.26,1.19-1.89,1.79-1.46,1.38-2.91,2.76-4.37,4.14-1.63,1.55-3.27,3.11-4.91,4.66-.82,.82-1.66,1.61-2.51,2.39-.41,.39-.82,.78-1.24,1.17-.19,.18-.39,.35-.6,.51-.12,.1-.48,.48-.63,.48h-15.03l1.22-.74c1.15-.85,2.3-1.7,3.45-2.55l-3.25-6.02c-2.09-3.37-4.18-6.73-6.26-10.1l-5.66,6.79c-.26,0-.52-.01-.78-.02l6.11-7.34h.01c.1,0,.17,0,.24,.01,4.08,.67,8.16,1.33,12.24,2.01,3.84,.63,7.68,1.26,11.52,1.9,.24,.04,.45,.03,.68-.05,6.48-2.02,12.96-4.04,19.44-6.06,.1-.03,.21-.06,.38-.11Z"/><path class="c" d="M79.83,39.33l-1.27,2.95h-.71l1.26-2.95h.02s-.03-.02-.04-.04v.03H43.09l1.05-1.02h31.49c0-.09-.01-.17-.01-.25,0-.54,0-1.08,0-1.62,0-.15-.04-.28-.14-.41-2.74-3.74-5.48-7.48-8.22-11.21-.73-.99-1.45-1.98-2.18-2.98l1.11-1.25c1.82,2.45,6.54,8.92,9.73,13.32h0l.25,.35c1.47,2.03,2.57,3.56,2.84,3.95l.03,.04,.78,1.08Z"/><line class="d" x1="59.65" y1="27.94" x2="62.58" y2="24.65"/></g><rect class="b" x="90.11" y="11.01" width=".82" height="42.98"/><g><path class="b" d="M114.15,20.46v8.62h-1.55v-1.92c0-1.07,.05-2.15,.14-3.24l-2.18,4.92h-1.41l-2.09-4.88c.1,1.12,.15,2.19,.15,3.2v1.92h-1.52v-8.62h1.43l2.78,6.63,2.83-6.63h1.42Z"/><path class="b" d="M117.65,21.89v2.15h3.54v1.37h-3.54v2.22h3.94v1.44h-5.51v-8.62h5.51v1.44h-3.94Z"/><path class="b" d="M129.43,21.88h-2.61v7.19h-1.58v-7.19h-2.63v-1.42h6.81v1.42Z"/><path class="b" d="M130.59,20.46h3.42c1.05,0,1.85,.23,2.39,.7,.54,.47,.82,1.13,.82,1.99,0,.6-.14,1.11-.42,1.53-.28,.42-.67,.73-1.17,.92l1.64,3.48h-1.76l-1.45-3.21h-1.9v3.21h-1.58v-8.62Zm3.42,4.04c.51,0,.9-.12,1.16-.37,.26-.25,.39-.57,.39-.96s-.13-.71-.4-.96-.65-.36-1.16-.36h-1.84v2.65h1.84Z"/><path class="b" d="M141.05,20.46h1.6l3.2,8.62h-1.67l-.7-1.96h-3.29l-.73,1.96h-1.63l3.22-8.62Zm1.98,5.35l-.55-1.52c-.05-.14-.2-.57-.43-1.28l-.18-.54c-.04,.12-.12,.37-.25,.74-.13,.38-.26,.73-.4,1.08l-.56,1.52h2.38Z"/><path class="b" d="M152,26.59c0,.81-.26,1.46-.78,1.94-.52,.48-1.21,.72-2.06,.72-.85,0-1.53-.26-2.03-.74s-.75-1.13-.75-1.92v-.43h1.52v.37c0,.42,.11,.74,.34,.96,.23,.22,.53,.33,.92,.33,.41,0,.73-.11,.95-.34,.22-.23,.33-.55,.33-.95v-4.65h-2.7v-1.42h4.27v6.13Z"/><path class="b" d="M111.37,37.36c.52,.51,.78,1.2,.78,2.05,0,.56-.12,1.05-.35,1.47s-.58,.76-1.02,1-.97,.36-1.57,.36h-1.94v2.96h-1.58v-8.62h3.54c.91,0,1.62,.26,2.14,.77Zm-1.27,3.11c.27-.29,.4-.65,.4-1.08,0-.39-.13-.73-.4-1-.26-.27-.65-.41-1.15-.41h-1.68v2.92h1.64c.53,0,.93-.14,1.19-.43Z"/><path class="b" d="M113.43,36.59h3.42c1.05,0,1.85,.23,2.39,.7,.54,.47,.82,1.13,.82,1.99,0,.6-.14,1.11-.42,1.53-.28,.42-.67,.73-1.17,.92l1.64,3.48h-1.76l-1.45-3.21h-1.9v3.21h-1.58v-8.62Zm3.42,4.04c.51,0,.9-.12,1.16-.37,.26-.25,.39-.57,.39-.96s-.13-.71-.4-.96-.65-.36-1.16-.36h-1.84v2.65h1.84Z"/><path class="b" d="M129.51,43.22c-.39,.68-.94,1.21-1.63,1.6-.69,.38-1.47,.57-2.33,.57s-1.64-.19-2.33-.56c-.69-.38-1.23-.91-1.62-1.59-.39-.68-.58-1.46-.58-2.32s.2-1.65,.58-2.33c.39-.68,.93-1.21,1.62-1.59,.69-.38,1.47-.57,2.34-.57s1.64,.19,2.33,.57c.69,.38,1.23,.91,1.62,1.58s.59,1.45,.59,2.32-.2,1.64-.59,2.32Zm-1.44-3.89c-.25-.46-.59-.81-1.03-1.07-.44-.26-.93-.38-1.48-.38s-1.05,.13-1.49,.38c-.44,.26-.78,.61-1.03,1.07-.25,.46-.37,.98-.37,1.58s.12,1.1,.37,1.56c.25,.46,.59,.81,1.03,1.07,.44,.25,.94,.38,1.49,.38s1.04-.13,1.48-.38c.44-.25,.78-.61,1.03-1.07s.37-.98,.37-1.57-.12-1.11-.37-1.56Z"/><path class="b" d="M139.75,40.53v.82c0,.8-.18,1.5-.55,2.11-.37,.61-.88,1.08-1.53,1.42s-1.4,.5-2.24,.5-1.63-.18-2.29-.55c-.66-.37-1.17-.88-1.53-1.55-.36-.67-.54-1.44-.54-2.32s.19-1.69,.56-2.37c.37-.68,.89-1.22,1.57-1.6s1.44-.57,2.31-.57c.7,0,1.34,.12,1.91,.37,.57,.25,1.04,.59,1.42,1.03,.38,.44,.62,.95,.74,1.53h-1.68c-.17-.46-.47-.83-.91-1.09-.43-.26-.94-.39-1.53-.39-.85,0-1.53,.28-2.02,.84-.5,.56-.74,1.3-.74,2.22s.25,1.65,.75,2.18c.5,.53,1.18,.8,2.02,.8,.71,0,1.3-.18,1.76-.54s.75-.86,.84-1.51h-2.73v-1.35h4.41Z"/><path class="b" d="M141.2,36.59h3.42c1.05,0,1.85,.23,2.39,.7,.54,.47,.82,1.13,.82,1.99,0,.6-.14,1.11-.42,1.53-.28,.42-.67,.73-1.17,.92l1.64,3.48h-1.76l-1.45-3.21h-1.9v3.21h-1.58v-8.62Zm3.42,4.04c.51,0,.9-.12,1.16-.37,.26-.25,.39-.57,.39-.96s-.13-.71-.4-.96-.65-.36-1.16-.36h-1.84v2.65h1.84Z"/><path class="b" d="M151.66,36.59h1.6l3.2,8.62h-1.67l-.7-1.96h-3.29l-.73,1.96h-1.63l3.22-8.62Zm1.98,5.35l-.55-1.52c-.05-.14-.2-.57-.43-1.28l-.18-.54c-.04,.12-.12,.37-.25,.74-.13,.38-.26,.74-.4,1.08l-.56,1.52h2.38Z"/><path class="b" d="M166.01,36.59v8.62h-1.55v-1.92c0-1.07,.05-2.15,.14-3.24l-2.18,4.92h-1.41l-2.09-4.88c.1,1.12,.15,2.19,.15,3.2v1.92h-1.52v-8.62h1.43l2.78,6.63,2.83-6.63h1.42Z"/><path class="b" d="M167.93,45.21v-8.62h1.58v8.62h-1.58Z"/></g></svg>